<svg version="1.1" id="Capa_1" xmlns="http://www.w3.org/2000/svg" xmlns:xlink="http://www.w3.org/1999/xlink" x="0px" y="0px"
	 viewBox="0 0 462.56 462.56" xml:space="preserve">
<g id="XMLID_52_">
	<circle id="XMLID_59_" cx="238.999" cy="44.777" r="35.378"/>
	<path id="XMLID_53_" d="M368.286,264.622c-6.14,0-12.142,0.597-17.958,1.723l-18.757-55.736l12.898,6.449
		c6.171,3.087,13.683,0.585,16.771-5.59c3.087-6.175,0.584-13.683-5.591-16.771l-35.147-17.573
		c4.77,7.085,6.722,16.043,4.675,25.028c-2.114,9.277-8.058,16.684-15.781,20.945l3.553,10.557l-39.437,1.163
		c0.344,4.236-0.095,8.536-1.337,12.699l-3.717,12.461l22.444-0.662l-31.422,30.757l-13.103,43.925
		c-2.688-0.879-5.688-0.859-8.52,0.275l-8.669,3.468c0.037-0.115,0.083-0.224,0.117-0.341l28.125-94.281
		c2.874-9.632-2.154-19.853-11.538-23.455l-17.31-6.645c-4.93-1.123-7.776-1.772-10.763-2.453
		c-9.037-2.059-15.384-9.668-16.307-18.398l-6.489-62.315l21.476,56.632c1.903,5.019,6.192,8.751,11.425,9.944l62.437,14.229
		c8.639,1.966,17.224-3.442,19.189-12.066c1.967-8.631-3.436-17.222-12.066-19.19l-54.059-12.319l-18.428-48.596l19.331,27.011
		l5.476-14.342c4.708-12.331-1.471-26.143-13.802-30.851l-39.815-15.202c-12.331-4.708-26.143,1.471-30.851,13.802
		c-31.455,82.38-30.172,78.204-31.124,83.678c-1.729,9.945,0.306,19.964,5.308,28.298c-20.879,0-14.791,0-17.02,0
		c-8.284,0-15,6.716-15,15s6.716,15,15,15h24.773l2.541,6.128l-17.523,25.631c-11.635-5.148-24.497-8.015-38.017-8.015
		C42.291,264.622,0,306.914,0,358.896c0,51.982,42.291,94.273,94.274,94.273c45.794,0,84.06-32.823,92.524-76.177
		c1.752,0.898,3.705,1.389,5.706,1.389c1.545,0,3.116-0.289,4.639-0.897l50-20c6.409-2.564,9.527-9.838,6.964-16.249
		c-1.034-2.586-2.843-4.624-5.045-5.982l73.777-72.215l3.802,11.297c-31.152,15.405-52.629,47.519-52.629,84.56
		c0,51.982,42.291,94.273,94.275,94.273c51.982,0,94.273-42.291,94.273-94.273C462.56,306.914,420.269,264.622,368.286,264.622z
		 M139.457,306.452c11.732,10.122,20.038,24.096,22.939,39.944h-50.248L139.457,306.452z M94.274,428.17
		C56.076,428.17,25,397.094,25,358.896c0-38.198,31.076-69.274,69.274-69.274c8.275,0,16.213,1.463,23.576,4.137l-39.71,58.083
		c-2.617,3.827-2.9,8.788-0.736,12.888c2.164,4.1,6.419,6.667,11.055,6.667h73.936C156.492,403.645,128.203,428.17,94.274,428.17z
		 M187.857,354.272c-0.834,0.333-1.608,0.75-2.325,1.23c-8.051-8.674-11.493-21.238-7.835-33.499l1.312-4.399
		c-6.064-12.394-14.768-23.268-25.376-31.889l7.614-11.137l17.796,42.914l9.059-30.367l-10.15-24.477l17.607-0.52l1.097-3.678
		c-8.8-3.378-36.877-14.156-45.777-17.573c46.212,0,41.303,0.02,42.437-0.041l22.159,8.356l-23.032,77.209
		c-2.64,8.851,1.398,18.1,9.187,22.361L187.857,354.272z M368.286,428.17c-38.198,0-69.275-31.076-69.275-69.273
		c0-26.023,14.431-48.73,35.703-60.568l21.725,64.555c1.757,5.221,6.625,8.517,11.845,8.517c1.322,0,2.667-0.211,3.989-0.656
		c6.543-2.202,10.061-9.291,7.859-15.834l-21.73-64.571c3.23-0.464,6.527-0.717,9.883-0.717c38.197,0,69.273,31.076,69.273,69.274
		C437.56,397.094,406.483,428.17,368.286,428.17z"/>
</g>
<g>
</g>
<g>
</g>
<g>
</g>
<g>
</g>
<g>
</g>
<g>
</g>
<g>
</g>
<g>
</g>
<g>
</g>
<g>
</g>
<g>
</g>
<g>
</g>
<g>
</g>
<g>
</g>
<g>
</g>
</svg>
