<svg version="1.2" baseProfile="tiny" id="Layer_1"
	 x="0px" y="0px" viewBox="-1077 923 256 256" xml:space="preserve">
<g>
	<path d="M-868.7,1024.6c-0.2,0-0.4,0.1-0.7,0.1c-0.1,0-0.2-0.1-0.3-0.1l-30.5,4.6l-17.3-38.2c-2.3-4.7-5.2-8.5-8.7-11.5
		c-1.5-1.5-3.2-2.8-5.1-3.8c-1.9-1.1-4-1.8-6.1-2.2c-5.6-1.3-10.7-0.5-15.4,2.2l-38.2,17.9c-2.6,1.7-5,2.3-5.7,2.8
		c-3.9,2.7-4.6,4.2-5,5l-19.2,36.9c-0.2,0.3-0.3,0.7-0.4,1.1c-0.7,1.4-1.1,3-1.1,4.6c0,1.7,0.5,3.4,1.2,4.8c1,2.4,2.6,3.9,4.8,4.6
		c1.3,0.6,2.8,1,4.4,1c4.1,0,7.7-2.4,9.4-5.9c0.1-0.2,0.3-0.4,0.4-0.6c12-22.5,18-33.8,18-34l20.4-4.8l-24.5,103.1l-46.8-0.3
		c-0.1,0-0.2,0-0.2,0.1c-0.1,0-0.2,0-0.3,0c-6.2,0-11.2,5-11.2,11.2c0,5.7,4.3,10.4,9.8,11v0.1l13.1,0c10.1,0.5,40,1.8,49.1,0.8
		c0.3,0,0.6,0.1,0.9,0.1c5.1,0,9.3-3.6,10.2-8.4l7-20.6l0,0c4.7-13.5,7.9-26.6,7.9-26.6c12.2,12.8,21.3,21.2,29.7,30l14.3,47l3,11.3
		l0.1,0c1.6,4.9,6.2,8.6,11.6,8.6c6.8,0,12.3-5.5,12.3-12.3c0-1-0.1-1.9-0.4-2.8l-0.9-3.5c0-0.1,0-0.1,0-0.2l-2.6-9.8l-2.6-9.7l0,0
		l-10.5-39.1c-1.5-3.6-2.7-7.2-5.8-10.6c0,0-29.3-32.5-30.1-33l6.7-31.5l9.3,19.7c0.1,0.2,0.2,0.3,0.4,0.5c0.6,0.9,1.2,1.7,1.7,2.3
		c1.8,1.8,4.2,2.9,6.9,2.9c0.1,0,0.2,0,0.2,0c0.8,0,1.6-0.1,2.4-0.3l34.2-3.7c0.1,0,0.2,0,0.3,0c0.9,0,1.7-0.1,2.5-0.3l0.5-0.1
		c0.1,0,0.2-0.1,0.3-0.2c4-1.4,7-5.2,7-9.7C-858.5,1029.2-863.1,1024.6-868.7,1024.6z"/>
	<path d="M-933.3,966.9c5.8,0,10.7-2,14.8-6.1c4.1-4.1,6.1-8.9,6.1-14.4c0-5.8-2-10.7-6.1-14.8c-4.1-4.1-9-6.1-14.8-6.1
		c-5.6,0-10.4,2-14.5,6.1c-4.1,4.1-6.1,9-6.1,14.8c0,5.6,2,10.4,6.1,14.4C-943.6,964.9-938.8,966.9-933.3,966.9z"/>
</g>
</svg>
