<svg version="1.1" id="Layer_1" x="0px" y="0px"
	 width="209px" height="256px" viewBox="0 0 209 256" enable-background="new 0 0 209 256" xml:space="preserve">
<path d="M96.571,96.408V2.003C96.57,2.002,96.569,2.001,96.568,2C44.367,1.858,2.021,44.204,2.164,96.405
	c0.001,0.001,0.002,0.002,0.003,0.003H96.571z M127.129,151.723c26.556-0.039,48.075-21.558,48.114-48.114l30.153-30.153
	c1.921-1.92,1.921-5.034,0-6.954c-1.919-1.92-5.034-1.92-6.953,0l-37.036,37.036H10.527c0,26.613,21.574,48.187,48.187,48.187h7.302
	l23.602,23.602l-21.762,21.762c-5.195-3.786-11.583-6.027-18.489-6.027c-17.352,0-31.469,14.117-31.469,31.469
	S32.015,254,49.368,254s31.469-14.117,31.469-31.469c0-6.905-2.241-13.294-6.027-18.489l21.762-21.762l21.761,21.761
	c-3.786,5.195-6.027,11.584-6.027,18.489c0,17.352,14.117,31.469,31.469,31.469s31.469-14.117,31.469-31.469
	s-14.117-31.469-31.469-31.469c-6.905,0-13.294,2.241-18.489,6.027l-21.761-21.762L127.129,151.723z M49.368,240.232
	c-9.761,0-17.701-7.941-17.701-17.701s7.941-17.701,17.701-17.701s17.701,7.941,17.701,17.701S59.128,240.232,49.368,240.232z
	 M161.477,222.531c0,9.76-7.941,17.701-17.701,17.701c-9.76,0-17.701-7.941-17.701-17.701s7.941-17.701,17.701-17.701
	C153.535,204.829,161.477,212.771,161.477,222.531z M79.923,151.725h33.297l-16.648,16.648L79.923,151.725z"/>
</svg>
